<svg width="24" height="24" viewBox="0 0 24 24" fill="none" xmlns="http://www.w3.org/2000/svg">
<path d="M17.0004 7.54981C16.9171 7.54981 16.8337 7.54148 16.7504 7.52481C16.6671 7.50814 16.5837 7.47481 16.5004 7.42481L15.6254 6.92481C15.3921 6.79148 15.1377 6.76247 14.8624 6.83781C14.5871 6.91314 14.3831 7.06714 14.2504 7.29981L14.1254 7.49981L15.1254 8.07481C15.4754 8.27481 15.7047 8.57481 15.8134 8.97481C15.9221 9.37481 15.8761 9.74981 15.6754 10.0998L15.0004 11.2998C15.3837 11.8998 15.6714 12.5375 15.8634 13.2128C16.0554 13.8881 16.1511 14.5838 16.1504 15.2998C16.1504 17.3831 15.4214 19.1541 13.9634 20.6128C12.5054 22.0715 10.7344 22.8005 8.65039 22.7998C6.56639 22.7991 4.79573 22.0618 3.33839 20.5878C1.88106 19.1138 1.15173 17.3345 1.15039 15.2498C1.14906 13.1651 1.87006 11.4025 3.31339 9.96181C4.75673 8.52114 6.51906 7.80048 8.60039 7.79981H8.92539L9.60039 6.62481C9.80039 6.25814 10.1004 6.02081 10.5004 5.91281C10.9004 5.80481 11.2837 5.85881 11.6504 6.07481L12.4004 6.49981L12.5254 6.29981C12.9087 5.58314 13.5087 5.11648 14.3254 4.89981C15.1421 4.68314 15.9087 4.78314 16.6254 5.19981L17.4754 5.67481C17.6254 5.75814 17.7504 5.87881 17.8504 6.03681C17.9504 6.19481 18.0004 6.36581 18.0004 6.54981C18.0004 6.83314 17.9044 7.07048 17.7124 7.26181C17.5204 7.45314 17.2831 7.54914 17.0004 7.54981ZM20.0004 7.79981C20.0004 7.51648 20.0964 7.27914 20.2884 7.08781C20.4804 6.89647 20.7177 6.80048 21.0004 6.79981H22.0004C22.2837 6.79981 22.5214 6.89581 22.7134 7.08781C22.9054 7.27981 23.0011 7.51714 23.0004 7.79981C22.9997 8.08248 22.9037 8.32014 22.7124 8.51281C22.5211 8.70547 22.2837 8.80114 22.0004 8.79981H21.0004C20.7171 8.79981 20.4797 8.70381 20.2884 8.51181C20.0971 8.31981 20.0011 8.08248 20.0004 7.79981ZM15.5004 3.29981C15.2171 3.29981 14.9797 3.20414 14.7884 3.01281C14.5971 2.82147 14.5011 2.58381 14.5004 2.29981V1.29981C14.5004 1.01647 14.5964 0.779141 14.7884 0.587808C14.9804 0.396475 15.2177 0.300475 15.5004 0.299808C15.7831 0.299141 16.0207 0.395141 16.2134 0.587808C16.4061 0.780475 16.5017 1.01781 16.5004 1.29981V2.29981C16.5004 2.58314 16.4044 2.82081 16.2124 3.01281C16.0204 3.20481 15.7831 3.30047 15.5004 3.29981ZM18.6754 4.62481C18.4921 4.44147 18.4004 4.20814 18.4004 3.92481C18.4004 3.64147 18.4921 3.40814 18.6754 3.22481L19.4004 2.49981C19.5837 2.31647 19.8171 2.22481 20.1004 2.22481C20.3837 2.22481 20.6171 2.31647 20.8004 2.49981C20.9837 2.68314 21.0754 2.91647 21.0754 3.19981C21.0754 3.48314 20.9837 3.71647 20.8004 3.89981L20.0754 4.62481C19.8921 4.80814 19.6587 4.89981 19.3754 4.89981C19.0921 4.89981 18.8587 4.80814 18.6754 4.62481Z" fill="black"/>
</svg>
